<?xml version="1.0" encoding="UTF-8"?>
<svg id="_Слой_2" data-name="Слой 2" xmlns="http://www.w3.org/2000/svg" viewBox="0 0 172.68 172.55">
  <defs>
    <style>
      .cls-1 {
        fill: #ffe6a7;
      }
    </style>
  </defs>
  <g id="_Слой_1-2" data-name="Слой 1">
    <path class="cls-1" d="m136.01,15.4C109.3-3.4,71.61-5.16,43.25,11.06c-5.4,3.09-11.79,7.63-12.18,14.44-.2,3.58,1.3,7.79,4.45,9.7,3.31,2.02,7.07,2.88,10.94,2.37,5.78-.79,10.96-3.87,16.21-6.41,13.69-6.65,29.38-9.98,44.28-6.9,14.9,3.08,28.71,13.24,33.94,27.52-8.17-4.58-18.69-3.64-26.86.92-8.17,4.55-14.2,12.3-18.34,20.69-1.46,2.97-2.76,6.09-4.99,8.55-2.24,2.45-5.7,4.11-8.88,3.17-4.27-1.27-5.99-6.27-7.08-10.59-1.26-5-2.59-9.99-3.84-14.99-1.19-4.73-1.68-9.46-4.14-13.79-.95-1.68-2.65-3.8-4.75-2.86-3.7,1.67-6.21,6.27-7.84,9.79-.61,1.3-.82,2.76-2.42,3.09-1.22.24-2.5-.46-3.69-.62-6.66-.93-13.39-1.28-20.12-1.35-1.69-.02-3.57.22-5.24-.02-1.14-.16-.88.08-1.07-1.05-.12-.74-.13-1.51-.24-2.25-.44-2.91-1.37-5.73-2.74-8.32-2.37-4.49-6.33.15-8.04,2.81-3.25,5.02-5.45,10.45-7.13,16.18-4.04,13.79-4.49,28.58-1.62,42.64,2.86,13.99,9.04,27.36,18.27,38.28,21.08,24.97,57.09,36.22,88.63,27.71,31.54-8.5,57.01-36.33,62.69-68.49.88-4.99,1.28-10.04,1.23-15.08-.29-27.51-14.08-54.87-36.67-70.77ZM20.8,84.99c-2.89,0-5.23-2.34-5.23-5.23s2.34-5.24,5.23-5.24,5.24,2.35,5.24,5.24-2.35,5.23-5.24,5.23Zm29.17,0c-2.89,0-5.24-2.34-5.24-5.23s2.35-5.24,5.24-5.24,5.24,2.35,5.24,5.24-2.35,5.23-5.24,5.23Z"/>
  </g>
</svg>