<?xml version="1.0" encoding="UTF-8"?>
<svg id="_Слой_2" data-name="Слой 2" xmlns="http://www.w3.org/2000/svg" viewBox="0 0 507.26 172.55">
  <defs>
    <style>
      .cls-1 {
        fill: #f18701;
      }

      .cls-2 {
        fill: #ffe6a7;
      }
    </style>
  </defs>
  <g id="_Слой_1-2" data-name="Слой 1">
    <path class="cls-2" d="m470.6,15.4c-26.72-18.8-64.4-20.56-92.76-4.34-5.4,3.09-11.79,7.63-12.18,14.44-.2,3.58,1.3,7.79,4.45,9.7,3.31,2.02,7.07,2.88,10.94,2.37,5.78-.79,10.96-3.87,16.21-6.41,13.69-6.65,29.38-9.98,44.28-6.9,14.9,3.08,28.71,13.24,33.94,27.52-8.17-4.58-18.69-3.64-26.86.92-8.17,4.55-14.2,12.3-18.34,20.69-1.46,2.97-2.76,6.09-4.99,8.55-2.24,2.45-5.7,4.11-8.88,3.17-4.27-1.27-5.99-6.27-7.08-10.59-1.26-5-2.59-9.99-3.84-14.99-1.19-4.73-1.68-9.46-4.14-13.79-.95-1.68-2.65-3.8-4.75-2.86-3.7,1.67-6.21,6.27-7.84,9.79-.61,1.3-.82,2.76-2.42,3.09-1.22.24-2.5-.46-3.69-.62-6.66-.93-13.39-1.28-20.12-1.35-1.69-.02-3.57.22-5.24-.02-1.14-.16-.88.08-1.07-1.05-.12-.74-.13-1.51-.24-2.25-.44-2.91-1.37-5.73-2.74-8.32-2.37-4.49-6.33.15-8.04,2.81-3.25,5.02-5.45,10.45-7.13,16.18-4.04,13.79-4.49,28.58-1.62,42.64,2.86,13.99,9.04,27.36,18.27,38.28,21.08,24.97,57.09,36.22,88.63,27.71,31.54-8.5,57.01-36.33,62.69-68.49.88-4.99,1.28-10.04,1.23-15.08-.29-27.51-14.08-54.87-36.67-70.77Zm-115.21,69.59c-2.89,0-5.23-2.34-5.23-5.23s2.34-5.24,5.23-5.24,5.24,2.35,5.24,5.24-2.35,5.23-5.24,5.23Zm29.17,0c-2.89,0-5.24-2.34-5.24-5.23s2.35-5.24,5.24-5.24,5.24,2.35,5.24,5.24-2.35,5.23-5.24,5.23Z"/>
    <path class="cls-1" d="m130.86,172.24c-9.18,0-16.64-7.47-16.64-16.64V34.97c0-9.18,7.47-16.64,16.64-16.64h65.03c9.18,0,16.64,7.47,16.64,16.64v4.63c0,9.18-7.47,16.64-16.64,16.64h-42.81v19.99h36.17c9.18,0,16.64,7.47,16.64,16.64v4.63c0,9.18-7.47,16.64-16.64,16.64h-36.17v20.18h42.81c9.18,0,16.64,7.47,16.64,16.64v4.63c0,9.18-7.47,16.64-16.64,16.64h-65.03Z"/>
    <path class="cls-1" d="m76.58,172.29c-.1,0-.2,0-.3,0-.1,0-3.38,0-3.38,0-6.4,0-12.17-4.27-14.36-10.63l-16.11-46.7v39.81c0,9.61-8.45,17.43-18.83,17.43h-4.76c-10.38,0-18.83-7.82-18.83-17.43V35.71c0-9.61,8.45-17.43,18.83-17.43,2.45,0,4.9.02,7.34.05,2.38.02,4.77.05,7.15.05,6.69,0,12.74,4.49,15.04,11.18l9.38,27.18v-20.93c0-10.26,7.62-17.43,18.52-17.43h5.07c10.38,0,18.83,7.82,18.83,17.43v119.06c0,9.61-8.45,17.43-18.83,17.43h-4.76Z"/>
    <g>
      <path class="cls-1" d="m244.03,18.33h4.01c9.62,0,17.43,7.81,17.43,17.43v119.06c0,9.62-7.81,17.43-17.43,17.43h-4c-9.62,0-17.43-7.81-17.43-17.43V35.75c0-9.62,7.81-17.43,17.43-17.43Z"/>
      <path class="cls-1" d="m243.94,129.2c-4.83,0-9.48-2.06-12.76-5.65-3.3-3.62-4.94-8.49-4.5-13.36l.33-3.65c.76-8.38,7.34-15.03,15.64-15.82,5.7-.54,10.74-2.06,15-4.51,5.73-3.3,10.33-7.64,14.05-13.27,3.92-5.92,6.9-12.75,8.84-20.27,1.5-5.81,2.45-11.86,2.83-17.98.57-9.17,8.21-16.35,17.39-16.35h4.56c4.81,0,9.45,2.01,12.74,5.53,3.28,3.5,4.97,8.25,4.66,13.02-.65,9.82-2.46,19.48-5.37,28.7-3.8,12.01-9.41,22.9-16.7,32.37-7.47,9.71-16.74,17.48-27.55,23.1-8.25,4.29-17.44,7-27.31,8.06-.61.07-1.24.1-1.85.1Z"/>
      <path class="cls-1" d="m299.59,172.24c-6.52,0-12.45-3.6-15.46-9.38l-28.56-54.9c-4.35-8.36-1.33-18.56,6.87-23.21l4.1-2.32c2.62-1.48,5.59-2.27,8.58-2.27,6.46,0,12.36,3.54,15.4,9.25l30.42,57.23c2.9,5.45,2.73,11.86-.45,17.16-3.18,5.29-8.76,8.45-14.94,8.45h-5.95Z"/>
    </g>
  </g>
</svg>